<svg xmlns="http://www.w3.org/2000/svg" xmlns:xlink="http://www.w3.org/1999/xlink" width="25" height="21" viewBox="0 0 25 21"><defs><path id="dd64a" d="M1147.415 4053.061c.053-.017.079-.07.079-.157 0-.07-.035-.123-.105-.158l-7.002-4a.433.433 0 0 0-.21 0c-.07.036-.106.097-.106.185v10.498c0 .07.044.131.132.184h.079c.07 0 .114-.018.132-.053zm8.528.764c-.052-.089-.131-.097-.237-.027l-2.684 1.579c-.351.193-.694.193-1.027 0l-2.369-1.342c-.088-.053-.167-.044-.237.026l-8.923 8.288a.178.178 0 0 0-.079.158c0 .07.035.123.106.158.14.087.272.132.394.132h22.9c.088 0 .158-.045.21-.132.018-.07 0-.14-.052-.21zm8.607-5.236l-6.685 3.92a.177.177 0 0 0-.08.158c-.017.052 0 .105.053.158l6.66 7.182c.052.053.105.08.158.08.035 0 .061-.01.078-.027.088-.035.132-.096.132-.184v-11.103c0-.088-.035-.15-.105-.184-.088-.053-.158-.053-.21 0zm-.526-5.946h-23.137a.787.787 0 0 0-.579.237.786.786 0 0 0-.237.578v2.631c0 .07.053.14.158.21l12.16 6.92c.018.018.053.027.106.027s.088-.009.105-.027l11.792-6.92a.621.621 0 0 1 .29-.13c.123 0 .184-.062.184-.185v-2.526a.786.786 0 0 0-.237-.578.82.82 0 0 0-.605-.237z"/></defs><g><g transform="translate(-1140 -4042)"><use fill="#e42c35" xlink:href="#dd64a"/></g></g></svg>