<svg xmlns="http://www.w3.org/2000/svg" xmlns:xlink="http://www.w3.org/1999/xlink" width="17" height="14" viewBox="0 0 17 14"><defs><path id="6z3va" d="M1295.051 24.922h-3.456v1.127h2.538l1.857 8.313h10.071v-1.127h-9.153zm2.897 10.19c-.854 0-1.547.683-1.547 1.526 0 .844.693 1.528 1.547 1.528s1.547-.684 1.547-1.528c0-.843-.693-1.525-1.547-1.525zm6.377 0c-.854 0-1.547.683-1.547 1.526 0 .844.693 1.528 1.547 1.528s1.547-.684 1.547-1.528c0-.843-.693-1.525-1.547-1.525zm1.37-2.722l1.587-6.935h-11.152l1.356 6.935z"/></defs><g><g transform="translate(-1291 -25)"><use fill="#e42c35" xlink:href="#6z3va"/></g></g></svg>