<svg xmlns="http://www.w3.org/2000/svg" xmlns:xlink="http://www.w3.org/1999/xlink" width="16" height="16" viewBox="0 0 16 16"><defs><path id="bryxa" d="M1652.153 33.777l3.659 3.66-2.193 2.194-3.659-3.66a6.269 6.269 0 0 1-3.342.94c-1.787 0-3.313-.632-4.578-1.898-1.265-1.265-1.897-2.792-1.897-4.58 0-1.787.632-3.308 1.897-4.561 1.265-1.254 2.79-1.88 4.578-1.88 1.787 0 3.313.626 4.578 1.88 1.265 1.253 1.897 2.774 1.897 4.562a6.275 6.275 0 0 1-.94 3.343zm-2.698-.505c.778-.778 1.167-1.718 1.167-2.82 0-1.103-.39-2.044-1.167-2.822-.777-.777-1.723-1.178-2.837-1.201-1.09.023-2.03.424-2.82 1.201-.789.778-1.183 1.719-1.183 2.821 0 1.103.394 2.043 1.183 2.821.79.778 1.73 1.167 2.82 1.167 1.114 0 2.06-.39 2.837-1.167z"/></defs><g><g transform="translate(-1640 -24)"><use fill="#e42c35" xlink:href="#bryxa"/></g></g></svg>