<svg xmlns="http://www.w3.org/2000/svg" xmlns:xlink="http://www.w3.org/1999/xlink" width="25" height="21" viewBox="0 0 25 21"><defs><path id="ykmza" d="M1520.103 191.84l-5.978 5.978a2.277 2.277 0 0 1-1.62.671 2.278 2.278 0 0 1-1.621-.67l-.225-.226-.393.394a2.277 2.277 0 0 1-1.621.67 2.277 2.277 0 0 1-1.62-.67l-9.923-9.92a2.294 2.294 0 0 1 0-3.241l1.204-1.203v-2.789c0-.432.35-.783.783-.783h2.789l1.203-1.203a2.276 2.276 0 0 1 1.62-.671c.613 0 1.188.238 1.621.671l.225.224.393-.393a2.277 2.277 0 0 1 1.62-.671c.613 0 1.188.239 1.621.671l9.922 9.92a2.294 2.294 0 0 1 0 3.241zm-10.945 5.04l5.979-5.978a.722.722 0 0 0 0-1.026l-9.143-9.143h-.001l-.778-.778a.722.722 0 0 0-1.027 0l-1.433 1.433a.784.784 0 0 1-.553.229h-2.33v2.33a.783.783 0 0 1-.23.553l-1.432 1.433a.727.727 0 0 0 0 1.027l9.922 9.92c.137.137.32.212.513.212a.72.72 0 0 0 .513-.212zm9.838-7.173l-9.922-9.92a.727.727 0 0 0-1.027 0l-.393.392 8.59 8.59c.433.433.671 1.008.671 1.62 0 .612-.238 1.187-.67 1.62l-4.479 4.477.225.225a.72.72 0 0 0 .513.213.72.72 0 0 0 .514-.213l5.978-5.978a.727.727 0 0 0 0-1.026zm-13.643-7.744a.783.783 0 0 1 0 1.107l-4.038 4.038a.78.78 0 0 1-1.107 0 .782.782 0 0 1 0-1.107l4.038-4.038a.783.783 0 0 1 1.107 0z"/></defs><g><g transform="translate(-1496 -178)"><use fill="#fff" xlink:href="#ykmza"/></g></g></svg>