<svg xmlns="http://www.w3.org/2000/svg" xmlns:xlink="http://www.w3.org/1999/xlink" width="41" height="47" viewBox="0 0 41 47"><defs><path id="g265a" d="M500.974 2273.882c0 11.085-8.983 20.075-20.077 20.075-11.084 0-20.073-8.99-20.073-20.075 0-5.002 1.84-9.56 4.86-13.074l1.117-1.205a20.011 20.011 0 0 1 12.184-5.698h.08v-1.667h-1.44a2.186 2.186 0 1 1 0-4.373h6.558a2.19 2.19 0 0 1 2.185 2.187 2.185 2.185 0 0 1-2.185 2.186h-1.3v1.675a20.008 20.008 0 0 1 11.639 5.233l1.796-1.794-.604-.598a1.288 1.288 0 0 1 0-1.825 1.284 1.284 0 0 1 1.82 0l2.732 2.734a1.278 1.278 0 0 1 0 1.821 1.28 1.28 0 0 1-1.817 0l-.544-.54-1.825 1.827c3.04 3.518 4.894 8.093 4.894 13.111zm-3.423-.035c0-9.211-7.47-16.678-16.676-16.678-9.21 0-16.679 7.467-16.679 16.678 0 9.21 7.467 16.675 16.68 16.675 9.205 0 16.675-7.464 16.675-16.675zm-14.09.709a2.563 2.563 0 1 1-5.127 0c0-.941.512-1.758 1.268-2.203v-10.51l1.379-1.944 1.214 1.945v10.509a2.55 2.55 0 0 1 1.266 2.203z"/></defs><g><g transform="translate(-460 -2247)"><use fill="#e42c35" xlink:href="#g265a"/></g></g></svg>