<svg xmlns="http://www.w3.org/2000/svg" xmlns:xlink="http://www.w3.org/1999/xlink" width="38" height="46" viewBox="0 0 38 46"><defs><path id="tprma" d="M481.322 2503.171a1.567 1.567 0 0 1-1.026 0c-18.744-6.495-18.45-21.885-18.235-33.123.023-1.208.044-2.35.044-3.453 0-.864.702-1.565 1.567-1.565 6.697 0 11.795-1.924 16.045-6.056a1.566 1.566 0 0 1 2.184 0c4.25 4.132 9.35 6.056 16.047 6.056.865 0 1.567.7 1.567 1.565 0 1.104.021 2.245.044 3.452.215 11.238.509 26.629-18.237 33.124zm15.106-33.064c-.013-.678-.026-1.335-.034-1.979-6.274-.264-11.29-2.164-15.585-5.904-4.294 3.74-9.31 5.64-15.582 5.904a370.66 370.66 0 0 1-.035 1.98c-.215 11.296-.459 24.085 15.617 29.923 16.077-5.839 15.834-18.627 15.619-29.924zm-8.011 5.35a1.565 1.565 0 0 1 0 2.213l-8.666 8.662a1.561 1.561 0 0 1-1.108.459c-.4 0-.801-.153-1.107-.459l-4.333-4.33a1.565 1.565 0 1 1 2.215-2.215l3.225 3.224 7.56-7.555a1.566 1.566 0 0 1 2.214 0z"/></defs><g><g transform="translate(-462 -2458)"><use fill="#e42c35" xlink:href="#tprma"/></g></g></svg>