<svg xmlns="http://www.w3.org/2000/svg" xmlns:xlink="http://www.w3.org/1999/xlink" width="20" height="29" viewBox="0 0 20 29"><defs><path id="vy11a" d="M477 4048.552c0 2.135-1.363 5.615-4.168 10.64a116.416 116.416 0 0 1-4.017 6.641l-1.429 2.166-1.429-2.166a116.545 116.545 0 0 1-4.017-6.641c-2.804-5.025-4.168-8.505-4.168-10.64 0-5.3 4.313-9.612 9.614-9.612 5.301 0 9.614 4.312 9.614 9.612zm-4.63-.065a4.983 4.983 0 1 0-9.966.001 4.983 4.983 0 0 0 9.965 0z"/></defs><g><g transform="translate(-457 -4039)"><use fill="#e42c35" xlink:href="#vy11a"/></g></g></svg>