<svg xmlns="http://www.w3.org/2000/svg" xmlns:xlink="http://www.w3.org/1999/xlink" width="15" height="14" viewBox="0 0 15 14"><defs><path id="xdy4a" d="M1148.551 37.995a.478.478 0 0 1-.117-.381 7.116 7.116 0 0 1 3.747-5.384 4.629 4.629 0 0 0 3.282 1.362c1.28 0 2.442-.521 3.282-1.362a7.117 7.117 0 0 1 3.747 5.384.477.477 0 0 1-.117.38.587.587 0 0 1-.442.194h-12.94a.586.586 0 0 1-.442-.193zm3.779-6.522a4.008 4.008 0 0 1-.895-2.526 4.033 4.033 0 0 1 4.028-4.028 4.033 4.033 0 0 1 4.028 4.028 4.009 4.009 0 0 1-1.348 3 4.009 4.009 0 0 1-2.68 1.028 4.007 4.007 0 0 1-2.916-1.256 4.147 4.147 0 0 1-.217-.246z"/></defs><g><g transform="translate(-1148 -25)"><use fill="#e42c35" xlink:href="#xdy4a"/></g></g></svg>