<svg xmlns="http://www.w3.org/2000/svg" xmlns:xlink="http://www.w3.org/1999/xlink" width="35" height="47" viewBox="0 0 35 47"><defs><path id="ywd6a" d="M44 2295v-47h35v47zm12.569-15.543h9.186v-5.11c4.565-1.684 9.783-4.891 9.783-11.577 0-6.304-5-11.25-13.588-11.25-7.718 0-13.045 4.076-14.675 10.109l8.587 2.283c.979-2.392 2.446-3.75 5.816-3.75 3.533 0 4.674 1.902 4.674 3.804 0 2.174-1.956 3.805-9.783 6.251zm4.566 12.338c3.098 0 4.62-1.902 4.62-4.294 0-2.391-1.577-4.24-4.62-4.24-3.098 0-4.675 1.849-4.675 4.24 0 2.392 1.577 4.294 4.675 4.294z"/><path id="ywd6b" d="M56.569 2270.217c7.827-2.446 9.783-4.077 9.783-6.25 0-1.903-1.14-3.805-4.674-3.805-3.37 0-4.837 1.358-5.816 3.75l-8.587-2.283c1.63-6.033 6.957-10.11 14.675-10.11 8.588 0 13.588 4.947 13.588 11.251 0 6.686-5.218 9.893-9.783 11.578v5.109h-9.186zm-.109 17.284c0-2.391 1.577-4.24 4.675-4.24 3.043 0 4.62 1.849 4.62 4.24 0 2.392-1.522 4.294-4.62 4.294s-4.675-1.902-4.675-4.294z"/><clipPath id="ywd6c"><use fill="#fff" xlink:href="#ywd6a"/></clipPath></defs><g><g transform="translate(-44 -2248)"><use fill="#fff" xlink:href="#ywd6b"/><use fill="#fff" fill-opacity="0" stroke="#e42c35" stroke-linecap="round" stroke-linejoin="round" stroke-miterlimit="50" stroke-width="6" clip-path="url(&quot;#ywd6c&quot;)" xlink:href="#ywd6b"/></g></g></svg>