<svg xmlns="http://www.w3.org/2000/svg" xmlns:xlink="http://www.w3.org/1999/xlink" width="28" height="27" viewBox="0 0 28 27"><defs><path id="20yla" d="M852.802 4062.343c.058.44-.076.821-.4 1.146l-3.807 3.781a2.14 2.14 0 0 1-.672.488c-.277.133-.549.219-.816.257-.019 0-.076.005-.171.015-.096.01-.22.014-.372.014-.363 0-.95-.062-1.76-.186-.811-.124-1.804-.43-2.977-.917-1.173-.487-2.504-1.218-3.992-2.192-1.488-.974-3.072-2.31-4.75-4.01-1.336-1.318-2.443-2.579-3.32-3.782-.878-1.204-1.584-2.316-2.118-3.338-.535-1.022-.935-1.948-1.202-2.78-.267-.83-.449-1.546-.544-2.148-.095-.601-.134-1.074-.114-1.418.019-.344.028-.535.028-.573.038-.267.124-.54.258-.816.133-.277.295-.502.486-.674l3.806-3.81c.268-.268.573-.401.916-.401.248 0 .468.071.658.215.191.143.353.32.487.53l3.062 5.815c.172.306.22.64.143 1.003a1.784 1.784 0 0 1-.486.917l-1.403 1.404a.48.48 0 0 0-.1.186.702.702 0 0 0-.043.215c.077.4.248.86.516 1.375.228.458.581 1.017 1.058 1.676.477.66 1.155 1.418 2.032 2.278.859.878 1.622 1.561 2.29 2.048.667.487 1.226.845 1.674 1.075.448.229.792.367 1.03.415l.358.072c.038 0 .1-.015.186-.043a.475.475 0 0 0 .186-.1l1.631-1.663a1.753 1.753 0 0 1 1.202-.458c.325 0 .582.058.773.172h.028l5.524 3.266c.4.249.64.564.715.946z"/></defs><g><g transform="translate(-825 -4041)"><use fill="#e42c35" xlink:href="#20yla"/></g></g></svg>