<svg xmlns="http://www.w3.org/2000/svg" xmlns:xlink="http://www.w3.org/1999/xlink" width="49" height="41" viewBox="0 0 49 41"><defs><path id="yskia" d="M82.834 2489.463l-11.721 11.72a4.463 4.463 0 0 1-3.177 1.316c-1.2 0-2.328-.467-3.177-1.316l-.44-.44-.772.771a4.465 4.465 0 0 1-3.177 1.316c-1.2 0-2.329-.468-3.177-1.316l-19.452-19.45a4.498 4.498 0 0 1 0-6.353l2.36-2.359v-5.466c0-.848.687-1.535 1.534-1.535h5.468l2.36-2.359a4.464 4.464 0 0 1 3.176-1.316c1.2 0 2.329.468 3.177 1.316l.44.44.772-.77a4.463 4.463 0 0 1 3.177-1.317c1.2 0 2.328.468 3.177 1.316l19.452 19.45a4.497 4.497 0 0 1 0 6.352zm-21.457 9.88l11.72-11.719c.27-.268.418-.626.418-1.006s-.148-.738-.417-1.006l-17.926-17.924-.001-.001-1.525-1.525a1.415 1.415 0 0 0-1.007-.416c-.38 0-.738.147-1.006.416l-2.81 2.809c-.287.288-.678.45-1.085.45H43.17v4.567c0 .407-.162.798-.45 1.085l-2.808 2.809a1.425 1.425 0 0 0 0 2.013l19.451 19.449c.27.268.627.417 1.007.417.38 0 .738-.148 1.007-.417zm19.287-14.062l-19.452-19.45a1.426 1.426 0 0 0-2.014 0l-.77.772 16.84 16.839a4.46 4.46 0 0 1 1.316 3.176c0 1.2-.467 2.328-1.316 3.177l-8.779 8.777.44.44c.27.27.627.418 1.007.418.38 0 .738-.148 1.007-.417l11.721-11.72a1.425 1.425 0 0 0 0-2.012zM53.917 2470.1c.599.6.599 1.57 0 2.17L46 2480.186c-.3.3-.693.45-1.086.45a1.533 1.533 0 0 1-1.085-2.62l7.917-7.916c.6-.6 1.572-.6 2.17 0z"/></defs><g><g transform="translate(-36 -2462)"><use fill="#e42c35" xlink:href="#yskia"/></g></g></svg>